<?xml version="1.0" encoding="iso-8859-1"?>
<!-- Generator: Adobe Illustrator 17.1.0, SVG Export Plug-In . SVG Version: 6.00 Build 0)  -->
<!DOCTYPE svg PUBLIC "-//W3C//DTD SVG 1.1//EN" "http://www.w3.org/Graphics/SVG/1.1/DTD/svg11.dtd">
<svg version="1.1" id="Capa_1" xmlns="http://www.w3.org/2000/svg" xmlns:xlink="http://www.w3.org/1999/xlink" x="0px" y="0px"
	 viewBox="0 0 204.268 204.268" style="enable-background:new 0 0 204.268 204.268;" xml:space="preserve">
<path d="M196.161,112.685h-12.8c-2.921-10.579-8.846-20.24-17.036-28.328c2.988-5.547,7.202-10.121,7.243-10.165
	c1.232-1.321,1.656-3.205,1.108-4.927c-0.548-1.722-1.982-3.014-3.752-3.38c-0.306-0.063-3.11-0.617-7.437-0.617
	c-4.609,0-11.663,0.657-19.172,3.758c-12.398-5.978-26.837-9.424-42.249-9.424c-25.791,0-48.88,9.615-64.181,24.682
	c-0.956-1.622-2.128-3.271-3.56-4.802c0.63-2.656,1.038-5.654,1.167-9.022c0.105-2.759-2.046-5.082-4.806-5.188
	c-2.746-0.108-5.082,2.045-5.188,4.806c-0.048,1.266-0.14,2.449-0.271,3.555c-0.571-0.185-1.161-0.349-1.77-0.49
	c-9.752-2.262-14.865,1.305-17.046,3.632C3.536,79.841,2.409,84.247,3.54,88c1.775,5.892,8.165,9.691,14.856,8.832
	c3.909-0.5,8.014-2.615,11.226-6.848c0.464,0.848,0.842,1.678,1.151,2.443c-7.649,10.281-12.058,22.339-12.058,35.221
	c0,16.361,7.112,31.389,18.941,43.139L31.2,198.119c-0.351,1.487-0.003,3.054,0.945,4.252c0.948,1.199,2.393,1.897,3.921,1.897h22
	c2.196,0,4.135-1.433,4.78-3.532l3.561-11.596c10.818,4.198,22.906,6.556,35.659,6.556c12.753,0,24.841-2.358,35.659-6.556
	l3.561,11.597c0.645,2.099,2.584,3.532,4.78,3.532h22c1.528,0,2.973-0.699,3.921-1.897c0.948-1.198,1.296-2.765,0.945-4.252
	l-6.456-27.332c6.186-6.145,11.063-13.192,14.326-20.852h15.36c2.761,0,5-2.239,5-5v-27.25
	C201.161,114.924,198.922,112.685,196.161,112.685z M17.128,86.913c-1.998,0.254-3.689-0.723-4.009-1.784
	c-0.034-0.152-0.025-0.909,0.65-1.58c0.757-0.752,2.062-1.135,3.757-1.135c1.08,0,2.317,0.155,3.671,0.469
	c0.363,0.084,0.715,0.186,1.055,0.302C20.737,85.542,18.887,86.688,17.128,86.913z M125.223,87.295
	c-1.455,2.332-4.515,3.05-6.854,1.617c-0.19-0.112-6.319-3.631-17.388-3.631c-11.578,0-20.496,4.846-20.584,4.895
	c-0.766,0.422-1.594,0.623-2.411,0.623c-1.762,0-3.471-0.934-4.382-2.585c-1.334-2.418-0.455-5.459,1.962-6.793
	c0.455-0.25,11.29-6.139,25.416-6.139c14.268,0,22.312,4.917,22.647,5.125C125.97,81.868,126.684,84.953,125.223,87.295z
	 M153.411,125.206c-6.141,0-11.136-5.383-11.136-12s4.996-12,11.136-12s11.137,5.383,11.137,12S159.551,125.206,153.411,125.206z
	 M124.494,23.333c0,12.866-10.467,23.333-23.333,23.333S77.827,36.199,77.827,23.333C77.827,10.467,88.295,0,101.161,0
	S124.494,10.467,124.494,23.333z"/>
<g>
</g>
<g>
</g>
<g>
</g>
<g>
</g>
<g>
</g>
<g>
</g>
<g>
</g>
<g>
</g>
<g>
</g>
<g>
</g>
<g>
</g>
<g>
</g>
<g>
</g>
<g>
</g>
<g>
</g>
</svg>
