<?xml version="1.0" encoding="iso-8859-1"?>
<!-- Generator: Adobe Illustrator 19.0.0, SVG Export Plug-In . SVG Version: 6.00 Build 0)  -->
<svg version="1.1" id="Capa_1" xmlns="http://www.w3.org/2000/svg" xmlns:xlink="http://www.w3.org/1999/xlink" x="0px" y="0px"
	 viewBox="0 0 496 496" style="enable-background:new 0 0 496 496;" xml:space="preserve">
<g>
	<g>
		<path d="M104,0C46.656,0,0,46.656,0,104h16c0-48.52,39.48-88,88-88s88,39.48,88,88v64.104h16V104C208,46.656,161.344,0,104,0z"/>
	</g>
</g>
<g>
	<g>
		<path d="M192,184c0,48.52-39.48,88-88,88s-88-39.48-88-88v-64H0v64c0,57.344,46.656,104,104,104s104-46.656,104-104H192z"/>
	</g>
</g>
<g>
	<g>
		<path d="M160,127.96V184c0,30.88-25.12,56-56,56s-56-25.12-56-56v-8H32v8c0,39.696,32.304,72,72,72s72-32.304,72-72v-56.04H160z"
			/>
	</g>
</g>
<g>
	<g>
		<path d="M104,32c-39.696,0-72,32.304-72,72v56h16v-56c0-30.88,25.12-56,56-56s56,25.12,56,56v9.32h16V104
			C176,64.304,143.696,32,104,32z"/>
	</g>
</g>
<g>
	<g>
		<path d="M464,208c-6.632,0-12.8,2.032-17.912,5.504C441.712,201.024,429.952,192,416,192c-6.632,0-12.8,2.032-17.912,5.504
			C393.712,185.024,381.952,176,368,176c-5.856,0-11.272,1.696-16,4.448V96c0-17.648-14.352-32-32-32s-32,14.352-32,32v120h-8
			c-22.056,0-40,17.944-40,40v94.312c0,18.768,9.328,36.184,24.936,46.592L288,412.28V496h168v-84.16l18.984-15.184
			C488.336,385.976,496,370.032,496,352.928V240C496,222.352,481.648,208,464,208z M480,352.928c0,12.216-5.472,23.6-15.008,31.232
			l-24.992,20V480H304v-76.28l-30.184-20.128C262.664,376.16,256,363.72,256,350.312V256c0-13.232,10.768-24,24-24h8v72h16V96
			c0-8.824,7.176-16,16-16c8.824,0,16,7.176,16,16v112v72h16v-72c0-8.824,7.176-16,16-16c8.824,0,16,7.176,16,16v16v56h16v-56
			c0-8.824,7.176-16,16-16c8.824,0,16,7.176,16,16v16v40h16v-40c0-8.824,7.176-16,16-16c8.824,0,16,7.176,16,16V352.928z"/>
	</g>
</g>
<g>
	<g>
		<rect x="96" y="104" width="16" height="80"/>
	</g>
</g>
<g>
	<g>
		<path d="M128,158.88V184c0,13.232-10.768,24-24,24s-24-10.768-24-24v-80c0-4.216,1.112-8.368,3.208-12l-13.856-8
			C65.848,90.048,64,96.968,64,104v80c0,22.056,17.944,40,40,40c22.056,0,40-17.944,40-40v-25.12H128z"/>
	</g>
</g>
<g>
	<g>
		<path d="M104,64c-6.44,0-12.832,1.568-18.496,4.528l7.416,14.176C96.344,80.912,100.08,80,104,80c13.232,0,24,10.768,24,24v38.608
			h16V104C144,81.944,126.056,64,104,64z"/>
	</g>
</g>
<g>
</g>
<g>
</g>
<g>
</g>
<g>
</g>
<g>
</g>
<g>
</g>
<g>
</g>
<g>
</g>
<g>
</g>
<g>
</g>
<g>
</g>
<g>
</g>
<g>
</g>
<g>
</g>
<g>
</g>
</svg>
