<?xml version="1.0" encoding="iso-8859-1"?>
<!-- Generator: Adobe Illustrator 19.0.0, SVG Export Plug-In . SVG Version: 6.00 Build 0)  -->
<svg version="1.1" id="Capa_1" xmlns="http://www.w3.org/2000/svg" xmlns:xlink="http://www.w3.org/1999/xlink" x="0px" y="0px"
	 viewBox="0 0 469.333 469.333" style="enable-background:new 0 0 469.333 469.333;" xml:space="preserve">
<g>
	<g>
		<g>
			<path d="M74.667,85.333h64c5.896,0,10.667-4.771,10.667-10.667S144.562,64,138.667,64h-64C68.771,64,64,68.771,64,74.667
				S68.771,85.333,74.667,85.333z"/>
			<path d="M138.667,106.667h-64c-5.896,0-10.667,4.771-10.667,10.667C64,123.229,68.771,128,74.667,128h64
				c5.896,0,10.667-4.771,10.667-10.667C149.333,111.437,144.562,106.667,138.667,106.667z"/>
			<path d="M266.667,85.333h64c5.896,0,10.667-4.771,10.667-10.667S336.563,64,330.667,64h-64C260.771,64,256,68.771,256,74.667
				S260.771,85.333,266.667,85.333z"/>
			<path d="M341.333,117.333c0-5.896-4.771-10.667-10.667-10.667h-64c-5.896,0-10.667,4.771-10.667,10.667
				c0,5.896,4.771,10.667,10.667,10.667h64C336.563,128,341.333,123.229,341.333,117.333z"/>
			<path d="M160,170.667c-5.896,0-10.667,4.771-10.667,10.667V224c0,5.896,4.771,10.667,10.667,10.667
				c5.896,0,10.667-4.771,10.667-10.667v-42.667C170.667,175.437,165.896,170.667,160,170.667z"/>
			<path d="M341.333,224c0,5.896,4.771,10.667,10.667,10.667c5.896,0,10.667-4.771,10.667-10.667v-42.667
				c0-5.896-4.771-10.667-10.667-10.667c-5.896,0-10.667,4.771-10.667,10.667V224z"/>
			<circle cx="405.333" cy="320" r="21.333"/>
			<path d="M405.333,257.078V42.667C405.333,19.135,386.188,0,362.667,0h-128c-12.801,0-24.172,5.785-32,14.746
				C194.839,5.785,183.467,0,170.667,0h-128C19.146,0,0,19.135,0,42.667v298.667C0,364.865,19.146,384,42.667,384h128
				c12.801,0,24.172-5.785,32-14.746c7.828,8.961,19.199,14.746,32,14.746h59.583l-35.125,35.125c-2,2-3.125,4.708-3.125,7.542v32
				c0,5.896,4.771,10.667,10.667,10.667h32c2.833,0,5.542-1.125,7.542-3.125l64.813-64.802c7.688,2.604,15.604,3.927,23.646,3.927
				c41.167,0,74.667-33.5,74.667-74.667C469.333,293.152,441.422,262.31,405.333,257.078z M192,341.333
				c0,11.76-9.563,21.333-21.333,21.333h-128c-11.771,0-21.333-9.573-21.333-21.333V42.667c0-11.76,9.563-21.333,21.333-21.333h128
				c11.771,0,21.333,9.573,21.333,21.333V341.333z M234.667,362.667c-11.771,0-21.333-9.573-21.333-21.333V42.667
				c0-11.76,9.563-21.333,21.333-21.333h128c11.771,0,21.333,9.573,21.333,21.333v214.411c-36.089,5.232-64,36.074-64,73.589
				c0,8.031,1.313,15.958,3.938,23.646l-8.354,8.354H234.667z M394.667,384c-7.458,0-14.813-1.615-21.854-4.802
				c-4.104-1.854-8.813-0.948-11.938,2.177L294.25,448h-16.917v-16.917l66.625-66.625c3.146-3.135,4-7.885,2.188-11.927
				c-3.188-7.063-4.813-14.427-4.813-21.865c0-29.406,23.917-53.333,53.333-53.333c29.417,0,53.333,23.927,53.333,53.333
				S424.083,384,394.667,384z"/>
		</g>
	</g>
</g>
<g>
</g>
<g>
</g>
<g>
</g>
<g>
</g>
<g>
</g>
<g>
</g>
<g>
</g>
<g>
</g>
<g>
</g>
<g>
</g>
<g>
</g>
<g>
</g>
<g>
</g>
<g>
</g>
<g>
</g>
</svg>
