<svg height="473pt" viewBox="-80 0 473 473.47825" width="473pt" xmlns="http://www.w3.org/2000/svg"><path d="m227.929688 132.636719-44.414063-6.453125-19.859375-40.246094c-1.347656-2.730469-4.128906-4.460938-7.175781-4.460938-3.042969 0-5.824219 1.730469-7.171875 4.460938l-19.863282 40.246094-44.414062 6.453125c-3.015625.4375-5.519531 2.546875-6.457031 5.441406-.941407 2.898437-.15625 6.078125 2.023437 8.203125l32.136719 31.328125-7.585937 44.234375c-.515626 3 .71875 6.035156 3.183593 7.824219 2.460938 1.789062 5.726563 2.023437 8.421875.609375l39.726563-20.882813 39.726562 20.886719c2.695313 1.414062 5.960938 1.179688 8.425781-.609375 2.460938-1.789063 3.695313-4.824219 3.179688-7.824219l-7.585938-44.234375 32.136719-31.328125c2.183594-2.125 2.972657-5.304687 2.03125-8.203125-.941406-2.898437-3.449219-5.011719-6.464843-5.445312zm-41.882813 36.449219c-1.886719 1.839843-2.746094 4.488281-2.300781 7.082031l5.558594 32.398437-29.101563-15.296875c-2.328125-1.226562-5.113281-1.226562-7.445313 0l-29.101562 15.296875 5.558594-32.398437c.445312-2.59375-.414063-5.242188-2.300782-7.082031l-23.539062-22.949219 32.53125-4.726563c2.609375-.378906 4.859375-2.015625 6.023438-4.375l14.550781-29.476562 14.550781 29.476562c1.164062 2.359375 3.417969 3.996094 6.023438 4.375l32.535156 4.730469zm0 0"/><path d="m156.480469 0c-86.207031 0-156.242188 70.132812-156.242188 156.339844 0 50.410156 24.242188 95.316406 61.242188 123.925781v185.203125c-.046875 3.1875 1.828125 6.089844 4.75 7.355469 2.921875 1.269531 6.320312.65625 8.617187-1.554688l81.660156-77.667969 81.671876 77.664063c1.488281 1.414063 3.457031 2.203125 5.507812 2.203125 1.054688-.003906 2.09375-.222656 3.054688-.648438 2.914062-1.277343 4.78125-4.171874 4.738281-7.351562v-185.203125c37-28.609375 61.242187-73.515625 61.242187-123.925781 0-86.203125-70.035156-156.339844-156.242187-156.339844zm79 446.824219-73.585938-70.0625c-3.03125-2.933594-7.84375-2.933594-10.878906 0l-73.535156 70.0625v-155.738281c48.730469 28.792968 109.269531 28.792968 158 0zm-79-150.144531c-77.382813 0-140.339844-62.957032-140.339844-140.339844 0-77.382813 62.957031-140.339844 140.339844-140.339844 77.382812 0 140.339843 62.957031 140.339843 140.339844 0 77.382812-62.957031 140.339844-140.339843 140.339844zm0 0"/></svg>