<svg width="280" height="58" viewBox="0 0 280 58" fill="none" xmlns="http://www.w3.org/2000/svg">
<path d="M0.5 29H279.02" stroke="white" strokeLinecap="square"/>
<path fillRule="evenodd" clipRule="evenodd" d="M138.5 57C153.964 57 166.5 44.464 166.5 29C166.5 13.536 153.964 1 138.5 1C123.036 1 110.5 13.536 110.5 29C110.5 44.464 123.036 57 138.5 57Z" fill="white" stroke="white"/>
<path d="M137.825 30.2129C137.825 31.6126 137.577 32.8398 137.083 33.8945C136.588 34.9492 135.878 35.763 134.954 36.3359C134.036 36.9089 132.981 37.1953 131.79 37.1953C130.611 37.1953 129.56 36.9121 128.635 36.3457C127.711 35.7793 126.995 34.972 126.487 33.9238C125.979 32.8691 125.722 31.6582 125.715 30.291V29.5879C125.715 28.1882 125.966 26.9577 126.467 25.8965C126.975 24.8288 127.688 24.0117 128.606 23.4453C129.531 22.8724 130.585 22.5859 131.77 22.5859C132.955 22.5859 134.007 22.8724 134.924 23.4453C135.849 24.0117 136.562 24.8288 137.063 25.8965C137.571 26.9577 137.825 28.1849 137.825 29.5781V30.2129ZM134.856 29.5684C134.856 28.0775 134.589 26.9447 134.055 26.1699C133.521 25.3952 132.76 25.0078 131.77 25.0078C130.787 25.0078 130.029 25.3919 129.495 26.1602C128.961 26.9219 128.691 28.0417 128.684 29.5195V30.2129C128.684 31.6647 128.951 32.791 129.485 33.5918C130.019 34.3926 130.787 34.793 131.79 34.793C132.773 34.793 133.528 34.4089 134.055 33.6406C134.583 32.8659 134.85 31.7396 134.856 30.2617V29.5684ZM145.551 31.7949H143.217V37H140.287V22.7812H145.57C147.25 22.7812 148.546 23.1556 149.457 23.9043C150.368 24.653 150.824 25.7109 150.824 27.0781C150.824 28.0482 150.613 28.8587 150.189 29.5098C149.773 30.1543 149.138 30.6686 148.285 31.0527L151.361 36.8633V37H148.217L145.551 31.7949ZM143.217 29.4219H145.58C146.316 29.4219 146.885 29.2363 147.289 28.8652C147.693 28.4876 147.895 27.9701 147.895 27.3125C147.895 26.6419 147.702 26.1146 147.318 25.7305C146.941 25.3464 146.358 25.1543 145.57 25.1543H143.217V29.4219Z" fill="#8B51FC"/>
</svg>
