<svg width="21" height="19" viewBox="0 0 21 19" fill="none" xmlns="http://www.w3.org/2000/svg">
<path d="M1.5 0.5C0.947715 0.5 0.5 0.947715 0.5 1.5C0.5 2.05228 0.947715 2.5 1.5 2.5V0.5ZM19.502 2.5C20.0542 2.5 20.502 2.05228 20.502 1.5C20.502 0.947715 20.0542 0.5 19.502 0.5V2.5ZM1.5 8.5C0.947715 8.5 0.5 8.94772 0.5 9.5C0.5 10.0523 0.947715 10.5 1.5 10.5V8.5ZM19.502 10.5C20.0542 10.5 20.502 10.0523 20.502 9.5C20.502 8.94772 20.0542 8.5 19.502 8.5V10.5ZM1.5 16.5829C0.947715 16.5829 0.5 17.0306 0.5 17.5829C0.5 18.1352 0.947715 18.5829 1.5 18.5829V16.5829ZM19.502 18.5829C20.0542 18.5829 20.502 18.1352 20.502 17.5829C20.502 17.0306 20.0542 16.5829 19.502 16.5829V18.5829ZM1.5 2.5H19.502V0.5H1.5V2.5ZM1.5 10.5H19.502V8.5H1.5V10.5ZM1.5 18.5829H19.502V16.5829H1.5V18.5829Z" fill="#4A4A4A"/>
</svg>
