<svg height="480pt" viewBox="0 0 480.00345 480" width="480pt" xmlns="http://www.w3.org/2000/svg"><path d="m136 272h16v16h-16zm0 0"/><path d="m168 272h16v16h-16zm0 0"/><path d="m200 272h16v16h-16zm0 0"/><path d="m136 304h16v16h-16zm0 0"/><path d="m168 304h16v16h-16zm0 0"/><path d="m200 304h16v16h-16zm0 0"/><path d="m232 304h16v16h-16zm0 0"/><path d="m264 304h16v16h-16zm0 0"/><path d="m136 336h16v16h-16zm0 0"/><path d="m168 336h16v16h-16zm0 0"/><path d="m200 336h16v16h-16zm0 0"/><path d="m232 336h16v16h-16zm0 0"/><path d="m264 336h16v16h-16zm0 0"/><path d="m136 368h16v16h-16zm0 0"/><path d="m168 368h16v16h-16zm0 0"/><path d="m200 368h16v16h-16zm0 0"/><path d="m232 368h16v16h-16zm0 0"/><path d="m264 368h16v16h-16zm0 0"/><path d="m136 400h16v16h-16zm0 0"/><path d="m168 400h16v16h-16zm0 0"/><path d="m200 400h16v16h-16zm0 0"/><path d="m232 400h16v16h-16zm0 0"/><path d="m264 400h16v16h-16zm0 0"/><path d="m136 432h16v16h-16zm0 0"/><path d="m168 432h16v16h-16zm0 0"/><path d="m200 432h16v16h-16zm0 0"/><path d="m232 432h16v16h-16zm0 0"/><path d="m264 432h16v16h-16zm0 0"/><path d="m472 24h-56v-16c0-4.417969-3.582031-8-8-8h-80c-4.417969 0-8 3.582031-8 8v16h-312c-4.417969 0-8 3.582031-8 8v32c0 4.421875 3.582031 8 8 8h24v152c0 4.421875 3.582031 8 8 8s8 3.582031 8 8c0 4.421875-3.582031 8-8 8s-8-3.578125-8-8h-16c.023438 5.855469 2.199219 11.5 6.121094 15.851562l-20.519532 27.351563.101563.078125c-1.070313 1.34375-1.6679688 3.003906-1.703125 4.71875v32c0 2.125.84375 4.15625 2.34375 5.65625l16 16c1.5 1.5 3.535156 2.34375 5.65625 2.34375h32c2.121094 0 4.15625-.84375 5.65625-2.34375l16-16c1.5-1.5 2.34375-3.53125 2.34375-5.65625v-32c-.035156-1.714844-.632812-3.375-1.703125-4.71875l.101563-.078125-20.519532-27.351563c5.34375-5.9375 7.359375-14.15625 5.371094-21.890624-1.984375-7.734376-7.710938-13.960938-15.25-16.589844v-145.371094h272v8c0 4.421875 3.582031 8 8 8h16v376h-32v-320h-16v32h-48v-16h-16v16h-48v-8h-16v8h-48v-24h104v-16h-104v-32h-16v360h-12.6875l-37.65625-37.652344c-3.125-3.125-8.1875-3.125-11.3125 0l-37.65625 37.652344h-4.6875v16h480v-16h-6.238281c5.628906-6.144531 7.628906-14.792969 5.269531-22.789062-2.355469-7.992188-8.726562-14.171876-16.792969-16.28125 4.066407-10.027344.925781-21.53125-7.675781-28.097657-8.597656-6.566406-20.527344-6.566406-29.125 0-8.601562 6.566407-11.742188 18.070313-7.675781 28.097657-8.066407 2.109374-14.4375 8.289062-16.792969 16.28125-2.359375 7.996093-.359375 16.644531 5.269531 22.789062h-14.238281v-376h16c4.417969 0 8-3.578125 8-8v-8h56c4.417969 0 8-3.578125 8-8v-32c0-4.417969-3.582031-8-8-8zm-428 240 12 16h-32l12-16zm20 52.691406-11.3125 11.308594h-25.375l-11.3125-11.308594v-20.691406h48zm373.601562-276.691406-21.601562 14.402344v-14.402344zm-101.601562-24h32v32h-32zm-216 25.601562 21.601562 14.398438h-43.203124zm-48 12.800782-21.601562-14.402344h43.203124zm74.398438-14.402344h43.203124l-21.601562 14.402344zm69.601562 1.601562 21.601562 14.398438h-43.203124zm26.398438-1.601562h43.203124l-21.601562 14.402344zm-226.398438 0h5.601562l24 16h-29.601562zm274.398438 16 24-16h5.601562v16zm85.601562 381.601562-14.398438-21.601562 14.398438-21.597656zm0-192-14.398438-21.601562 14.398438-21.597656zm-16 4.800782 14.398438 21.597656-14.398438 21.601562zm0-52.800782v-43.199218l14.398438 21.597656zm0 148.800782 14.398438 21.597656-14.398438 21.601562zm16-4.847656-14.398438-21.554688 14.398438-21.597656zm-14.398438-213.554688 14.398438-21.597656v43.199218zm-1.601562-26.398438v-13.601562h9.054688zm-64 90.398438v80h-48v-80zm-64 0v68.800781l-18.398438-18.183593c-1.492187-1.472657-3.503906-2.304688-5.601562-2.3125h-24v-48.304688zm-64 0v13.335938h-48v-13.335938zm-120 251.3125 20.6875 20.6875h-41.375zm72 20.6875v-242.664062h48v27c0 4.421874 3.582031 8 8 8h28.710938l29.6875 29.355468c1.492187 1.472656 3.503906 2.304688 5.601562 2.308594h56v176zm240-21.597656 14.398438 21.597656h-14.398438zm96 13.597656c-4.417969 0-8-3.578125-8-8 0-4.417969 3.582031-8 8-8s8 3.582031 8 8c0 4.421875-3.582031 8-8 8zm-16-48c4.417969 0 8 3.582031 8 8 0 4.421875-3.582031 8-8 8s-8-3.578125-8-8c0-4.417969 3.582031-8 8-8zm-16 32c4.417969 0 8 3.582031 8 8 0 4.421875-3.582031 8-8 8s-8-3.578125-8-8c0-4.417969 3.582031-8 8-8zm-24-368h-64v-8h40c4.417969 0 8-3.578125 8-8v-40h16zm42.398438-16 21.601562-14.398438v14.398438zm0 0"/></svg>