<svg xmlns="http://www.w3.org/2000/svg" width="512" height="512"><path d="M511.945 245.64c-1.53-66.98-29.011-129.398-77.382-175.753-48.301-46.29-111.747-71.082-178.59-69.84-66.871-1.254-130.286 23.555-178.586 69.84C29.016 116.242 1.535 178.66.004 245.637l-.004.21v.212a241.633 241.633 0 0080.32 178.64v61.887c0 12.012 8.387 22.476 19.942 24.883 1.71.355 3.433.531 5.148.531a24.92 24.92 0 0013.242-3.813l49.739-31.07c28.05 9.82 57.32 14.797 87.078 14.797h.375c1.644.031 3.277.047 4.918.047 65.105-.004 126.656-24.707 173.8-69.887 48.372-46.355 75.852-108.77 77.383-175.75l.008-.344zm-98.16 154.755c-41.515 39.785-95.707 61.539-153.039 61.539a245 245 0 01-4.476-.043l-.165-.004h-.16a233.044 233.044 0 01-80.918-14.29c-6.433-2.359-13.441-1.636-19.222 1.977l-45.457 28.395v-56.926c0-6.348-2.762-12.39-7.575-16.578-45.867-39.871-72.37-97.578-72.742-158.352 1.395-58.898 25.586-113.773 68.133-154.547 42.594-40.816 98.559-62.644 157.512-61.492l.297.004.297-.004C315.262 28.91 371.19 50.75 413.785 91.566c42.508 40.739 66.695 95.57 68.13 154.414-1.43 58.848-25.618 113.676-68.13 154.415zm0 0" data-original="#000000" class="active-path" data-old_color="#000000" fill="#FFF"/><path d="M394.566 163.723L299.25 215.69l-57.098-48.96c-9.879-8.47-24.824-7.895-34.02 1.304L87.623 288.547c-4.72 4.75-7.31 11.047-7.286 17.738.02 6.695 2.644 12.98 7.39 17.695 4.84 4.81 11.172 7.317 17.61 7.317 4.086 0 8.21-1.008 12.027-3.078l95.32-51.969 57.157 48.98c9.879 8.47 24.824 7.895 34.02-1.304l120.53-120.531c8.688-8.77 9.645-22.805 2.239-32.672-7.41-9.914-21.192-12.922-32.063-7zm-108.683 135.71l-57.895-49.613c-4.047-3.468-9.164-5.258-14.312-5.258-3.594 0-7.203.872-10.469 2.653l-69.895 38.105 92.793-92.793 57.829 49.59c6.875 5.895 16.836 6.945 24.793 2.61l70.066-38.204zm0 0" data-original="#000000" class="active-path" data-old_color="#000000" fill="#FFF"/></svg>