<?xml version="1.0" encoding="iso-8859-1"?>
<!-- Generator: Adobe Illustrator 16.0.0, SVG Export Plug-In . SVG Version: 6.00 Build 0)  -->
<!DOCTYPE svg PUBLIC "-//W3C//DTD SVG 1.1//EN" "http://www.w3.org/Graphics/SVG/1.1/DTD/svg11.dtd">
<svg version="1.1" id="Capa_1" xmlns="http://www.w3.org/2000/svg" xmlns:xlink="http://www.w3.org/1999/xlink" x="0px" y="0px"
	 width="70.075px" height="70.075px" viewBox="0 0 70.075 70.075" style="enable-background:new 0 0 70.075 70.075;"
	 xml:space="preserve">
<g>
	<g>
		<path d="M54.936,24.667c-0.287,0.136-0.608,0.201-0.953,0.201c-0.271,0-0.84-0.133-1.716-0.393
			c-0.871-0.259-1.573-0.392-2.105-0.392c-0.47,0-0.953,0.074-1.445,0.231c-0.493,0.147-0.997,0.348-1.506,0.611
			c0.942-0.707,1.636-1.42,2.085-2.14c0.438-0.716,0.657-1.448,0.657-2.184c0-0.205-0.019-0.406-0.051-0.598
			s-0.084-0.455-0.15-0.798h3.125v-1.15h-3.627c-0.541-1.037-0.895-1.761-1.054-2.162c-0.167-0.412-0.244-0.809-0.244-1.189
			c0-0.773,0.265-1.429,0.796-1.976c0.529-0.541,1.314-0.815,2.341-0.815c1.056,0,1.852,0.292,2.374,0.871
			c0.519,0.58,0.778,1.422,0.778,2.537h2.048c-0.024-1.642-0.46-2.915-1.305-3.819c-0.842-0.896-2.087-1.345-3.733-1.345
			c-1.748,0-3.089,0.455-4.02,1.369c-0.939,0.911-1.407,1.938-1.407,3.089c0,0.318,0.021,0.624,0.072,0.912
			c0.053,0.283,0.119,0.532,0.188,0.74c0.077,0.231,0.242,0.595,0.493,1.094c0.243,0.497,0.374,0.729,0.374,0.693h-1.738v1.144h2.44
			c0.144,0.347,0.235,0.622,0.301,0.822c0.096,0.318,0.14,0.594,0.14,0.827c0,0.827-0.251,1.593-0.762,2.295
			c-0.512,0.705-1.178,1.349-2.008,1.929l1.1,1.575c0.456-0.285,0.84-0.479,1.132-0.604c0.506-0.191,1.03-0.283,1.592-0.283
			c0.606,0,1.433,0.164,2.475,0.51c1.04,0.341,1.791,0.508,2.235,0.508c0.603,0,1.173-0.132,1.707-0.388
			c0.319-0.158,0.69-0.411,1.102-0.738l-0.917-1.498C55.383,24.417,55.109,24.584,54.936,24.667z"/>
		<g>
			<path d="M32.365,5.938c-8.31-0.073-16.634,3.047-22.971,9.383c-12.525,12.524-12.525,32.839,0,45.36
				c12.521,12.525,32.836,12.525,45.362,0.005c6.337-6.341,9.455-14.375,9.382-22.683H32.365V5.938z"/>
		</g>
		<g>
			<path d="M70.075,34.335H36.03V0l1.141,0.012c8.764,0.082,16.996,3.534,23.18,9.712c6.089,6.092,9.631,14.648,9.713,23.47
				L70.075,34.335z M38.298,32.071h29.48c-0.355-7.83-3.608-15.332-9.024-20.749c-5.495-5.494-12.719-8.671-20.456-9.02V32.071z"/>
		</g>
	</g>
</g>
<g>
</g>
<g>
</g>
<g>
</g>
<g>
</g>
<g>
</g>
<g>
</g>
<g>
</g>
<g>
</g>
<g>
</g>
<g>
</g>
<g>
</g>
<g>
</g>
<g>
</g>
<g>
</g>
<g>
</g>
</svg>
