<?xml version="1.0" encoding="iso-8859-1"?>
<!-- Generator: Adobe Illustrator 19.0.0, SVG Export Plug-In . SVG Version: 6.00 Build 0)  -->
<svg version="1.1" id="Capa_1" xmlns="http://www.w3.org/2000/svg" xmlns:xlink="http://www.w3.org/1999/xlink" x="0px" y="0px"
	 viewBox="0 0 512 512" style="enable-background:new 0 0 512 512;" xml:space="preserve">
<g>
	<g>
		<polygon points="306,188.504 271.451,183.483 256,152.177 240.549,183.483 206,188.504 231,212.873 225.098,247.282 256,231.036 
			286.902,247.282 281,212.873 		"/>
	</g>
</g>
<g>
	<g>
		<polygon points="166,188.504 131.451,183.483 116,152.177 100.549,183.483 66,188.504 91,212.873 85.098,247.282 116,231.036 
			146.902,247.282 141,212.873 		"/>
	</g>
</g>
<g>
	<g>
		<polygon points="446,188.504 411.451,183.483 396,152.177 380.549,183.483 346,188.504 371,212.873 365.098,247.282 396,231.036 
			426.902,247.282 421,212.873 		"/>
	</g>
</g>
<g>
	<g>
		<path d="M0,86.73v229.999h201.729L256,425.271l54.271-108.541H512v-230H0z M482,286.729H291.729L256,358.188l-35.729-71.459H30
			v-170h452V286.729z"/>
	</g>
</g>
<g>
</g>
<g>
</g>
<g>
</g>
<g>
</g>
<g>
</g>
<g>
</g>
<g>
</g>
<g>
</g>
<g>
</g>
<g>
</g>
<g>
</g>
<g>
</g>
<g>
</g>
<g>
</g>
<g>
</g>
</svg>
